# Blender v2.93.4 OBJ File: 'mt-fuckoff.blend'
# www.blender.org
mtllib tree.mtl
o tree_Cone.006
v 0.000000 -1.500000 -1.250000
v 0.478354 -1.500000 -1.154849
v 0.883883 -1.500000 -0.883883
v 1.154849 -1.500000 -0.478354
v 1.250000 -1.500000 0.000000
v 1.154849 -1.500000 0.478354
v 0.883883 -1.500000 0.883883
v 0.478354 -1.500000 1.154849
v -0.000000 -1.500000 1.250000
v -0.478354 -1.500000 1.154849
v -0.883883 -1.500000 0.883884
v -1.154849 -1.500000 0.478354
v -1.250000 -1.500000 -0.000000
v -1.154849 -1.500000 -0.478355
v -0.883884 -1.500000 -0.883883
v -0.478354 -1.500000 -1.154849
v -0.000000 1.411765 -0.625000
v -0.000000 -1.500000 -0.375000
v 0.143506 -1.500000 -0.346455
v 0.265165 -1.500000 -0.265165
v 0.346455 -1.500000 -0.143506
v 0.375000 -1.500000 0.000000
v 0.346455 -1.500000 0.143506
v 0.265165 -1.500000 0.265165
v 0.143506 -1.500000 0.346455
v -0.000000 -1.500000 0.375000
v -0.143506 -1.500000 0.346455
v -0.265165 -1.500000 0.265165
v -0.346455 -1.500000 0.143506
v -0.375000 -1.500000 -0.000000
v -0.346455 -1.500000 -0.143506
v -0.265165 -1.500000 -0.265165
v -0.143506 -1.500000 -0.346455
v -0.000000 -2.500000 -0.375000
v 0.143506 -2.500000 -0.346455
v 0.265165 -2.500000 -0.265165
v 0.346455 -2.500000 -0.143506
v 0.375000 -2.500000 0.000000
v 0.346455 -2.500000 0.143506
v 0.265165 -2.500000 0.265165
v 0.143506 -2.500000 0.346455
v -0.000000 -2.500000 0.375000
v -0.143506 -2.500000 0.346455
v -0.265165 -2.500000 0.265165
v -0.346455 -2.500000 0.143506
v -0.375000 -2.500000 -0.000000
v -0.346455 -2.500000 -0.143506
v -0.265165 -2.500000 -0.265165
v -0.143506 -2.500000 -0.346455
v 0.000000 0.000000 -0.625000
v 0.239177 0.000000 -0.577425
v 0.441942 0.000000 -0.441942
v 0.577425 0.000000 -0.239177
v 0.625000 0.000000 0.000000
v 0.577425 0.000000 0.239177
v 0.441942 0.000000 0.441942
v 0.239177 0.000000 0.577425
v -0.000000 0.000000 0.625000
v -0.239177 0.000000 0.577425
v -0.441942 0.000000 0.441942
v -0.625000 0.000000 -0.000000
v -0.577425 0.000000 -0.239177
v -0.441942 0.000000 -0.441942
v -0.239177 0.000000 -0.577425
v -0.577425 0.000000 0.239177
v -0.000000 -0.088235 -1.250000
v -1.154849 -0.088235 0.478354
v 0.478354 -0.088235 -1.154849
v 0.883883 -0.088235 -0.883883
v 1.154849 -0.088235 -0.478354
v 1.250000 -0.088235 0.000000
v 1.154849 -0.088235 0.478354
v 0.883883 -0.088235 0.883883
v 0.478354 -0.088235 1.154849
v -0.000000 -0.088235 1.250000
v -0.478354 -0.088235 1.154849
v -0.883883 -0.088235 0.883884
v -1.250000 -0.088235 -0.000000
v -1.154849 -0.088235 -0.478355
v -0.883884 -0.088235 -0.883883
v -0.478354 -0.088235 -1.154849
v -0.577425 1.411765 0.239177
v 0.239177 1.411765 -0.577425
v 0.441942 1.411765 -0.441942
v 0.577425 1.411765 -0.239177
v 0.625000 1.411765 0.000000
v 0.577425 1.411765 0.239177
v 0.441942 1.411765 0.441942
v 0.239177 1.411765 0.577425
v -0.000000 1.411765 0.625000
v -0.239177 1.411765 0.577425
v -0.441942 1.411765 0.441942
v -0.625000 1.411765 -0.000000
v -0.577425 1.411765 -0.239177
v -0.441942 1.411765 -0.441942
v -0.239177 1.411765 -0.577425
v -0.239177 -0.088235 -1.202425
v -0.681119 -0.088235 -1.019366
v -1.019367 -0.088235 -0.681119
v -1.202425 -0.088235 -0.239177
v -1.019366 -0.088235 0.681119
v -1.202425 -0.088235 0.239177
v -0.681119 -0.088235 1.019367
v -0.239177 -0.088235 1.202425
v 0.239177 -0.088235 1.202425
v 0.681119 -0.088235 1.019367
v 1.019367 -0.088235 0.681119
v 1.202425 -0.088235 0.239177
v 1.202425 -0.088235 -0.239177
v 1.019367 -0.088235 -0.681119
v 0.681119 -0.088235 -1.019367
v 0.239177 -0.088235 -1.202425
v -0.000000 1.341177 -1.125000
v -0.000000 4.041177 0.000000
v -1.039364 1.341177 0.430519
v 0.430519 1.341177 -1.039364
v 0.795495 1.341177 -0.795495
v 1.039364 1.341177 -0.430519
v 1.125000 1.341177 0.000000
v 1.039364 1.341177 0.430519
v 0.795495 1.341177 0.795495
v 0.430519 1.341177 1.039364
v -0.000000 1.341177 1.125000
v -0.430519 1.341177 1.039364
v -0.795495 1.341177 0.795495
v -1.125000 1.341177 -0.000000
v -1.039364 1.341177 -0.430519
v -0.795495 1.341177 -0.795495
v -0.430519 1.341177 -1.039364
vt 0.152511 0.069357
vt 0.124918 0.069357
vt 0.111122 0.000000
vt 0.138715 0.000000
vt 0.166307 0.000000
vt 0.124918 0.208072
vt 0.152511 0.208072
vt 0.166306 0.277429
vt 0.138714 0.277429
vt 0.111122 0.277429
vt 0.178002 0.079916
vt 0.191798 0.010559
vt 0.217290 0.021118
vt 0.079916 0.178002
vt 0.099427 0.197513
vt 0.060139 0.256311
vt 0.040629 0.236800
vt 0.021118 0.217290
vt 0.085631 0.266870
vt 0.197513 0.099427
vt 0.236800 0.040629
vt 0.256311 0.060139
vt 0.069357 0.152511
vt 0.010559 0.191798
vt 0.000000 0.166306
vt 0.208072 0.124918
vt 0.266870 0.085631
vt 0.277429 0.111122
vt 0.069357 0.124918
vt 0.000000 0.138714
vt 0.000000 0.111122
vt 0.197513 0.178002
vt 0.208072 0.152511
vt 0.277429 0.166307
vt 0.266870 0.191798
vt 0.256311 0.217290
vt 0.079916 0.099427
vt 0.010559 0.085631
vt 0.021118 0.060139
vt 0.616100 0.682682
vt 0.434519 0.657962
vt 0.443935 0.607452
vt 0.620808 0.657427
vt 0.277429 0.138715
vt 0.099427 0.079916
vt 0.040629 0.040629
vt 0.060139 0.021118
vt 0.178002 0.197513
vt 0.236800 0.236801
vt 0.217290 0.256311
vt 0.085631 0.010559
vt 0.337568 0.021118
vt 0.388551 0.000000
vt 0.407866 0.097100
vt 0.392571 0.103436
vt 0.533740 0.060139
vt 0.554858 0.111122
vt 0.457758 0.130437
vt 0.451422 0.115142
vt 0.494719 0.256311
vt 0.443735 0.277429
vt 0.424421 0.180329
vt 0.439716 0.173993
vt 0.277429 0.166306
vt 0.277429 0.111122
vt 0.374529 0.130437
vt 0.374529 0.146992
vt 0.443736 0.000000
vt 0.424421 0.097100
vt 0.554858 0.166307
vt 0.457758 0.146992
vt 0.388551 0.277429
vt 0.407866 0.180329
vt 0.298547 0.060139
vt 0.380865 0.115142
vt 0.337568 0.256311
vt 0.298547 0.217290
vt 0.380865 0.162287
vt 0.392571 0.173993
vt 0.494719 0.021118
vt 0.439716 0.103436
vt 0.533740 0.217290
vt 0.451422 0.162287
vt 0.749975 0.050510
vt 0.931556 0.075230
vt 0.929903 0.102773
vt 0.746668 0.105595
vt 0.759391 0.000000
vt 0.936264 0.049975
vt 0.434519 0.764321
vt 0.616100 0.735862
vt 0.620808 0.755690
vt 0.443935 0.803977
vt 0.431212 0.713047
vt 0.614447 0.710225
vt 0.191798 0.266870
vt 0.003307 0.764320
vt 0.184888 0.735862
vt 0.189596 0.755690
vt 0.012723 0.803977
vt 0.000000 0.713047
vt 0.183235 0.710225
vt 0.003307 0.657962
vt 0.184888 0.682682
vt 0.012723 0.607452
vt 0.189596 0.657427
vt 0.624115 0.765134
vt 0.805696 0.736675
vt 0.810404 0.756503
vt 0.633531 0.804790
vt 0.620808 0.713860
vt 0.804043 0.711038
vt 0.624115 0.658775
vt 0.805696 0.683496
vt 0.633531 0.608265
vt 0.810404 0.658241
vt 0.749975 0.156869
vt 0.931556 0.128410
vt 0.936264 0.148238
vt 0.759391 0.196525
vt 0.394694 0.416068
vt 0.394694 0.388476
vt 0.450180 0.377439
vt 0.450180 0.427105
vt 0.554858 0.145189
vt 0.554858 0.117597
vt 0.554858 0.090004
vt 0.737594 0.103800
vt 0.737594 0.131392
vt 0.791017 0.383024
vt 0.974251 0.380202
vt 0.975905 0.405839
vt 0.794323 0.434298
vt 0.792670 0.408661
vt 0.286049 0.461070
vt 0.311541 0.471629
vt 0.300504 0.527115
vt 0.254619 0.508109
vt 0.794323 0.327939
vt 0.975905 0.352660
vt 0.792670 0.355482
vt 0.339133 0.471629
vt 0.364624 0.461070
vt 0.396055 0.508109
vt 0.350169 0.527115
vt 0.803739 0.277429
vt 0.980613 0.327404
vt 0.799031 0.302684
vt 0.286049 0.343474
vt 0.266538 0.362984
vt 0.219500 0.331554
vt 0.254619 0.296435
vt 0.561231 0.196172
vt 0.740781 0.156884
vt 0.746668 0.176395
vt 0.573006 0.235193
vt 0.567119 0.215682
vt 0.255979 0.388476
vt 0.255979 0.416068
vt 0.200494 0.427105
vt 0.200494 0.377439
vt 0.384135 0.362984
vt 0.364624 0.343474
vt 0.396055 0.296435
vt 0.431173 0.331554
vt 0.558044 0.170680
vt 0.558044 0.064513
vt 0.561231 0.039021
vt 0.740781 0.078309
vt 0.311541 0.332915
vt 0.300504 0.277429
vt 0.573006 0.000000
vt 0.746668 0.058798
vt 0.567119 0.019511
vt 0.384135 0.441560
vt 0.431173 0.472990
vt 0.050983 0.803977
vt 0.064779 0.986713
vt 0.039288 0.989900
vt 0.000000 0.810350
vt 0.025492 0.807163
vt 0.266538 0.441560
vt 0.219500 0.472990
vt 0.106167 0.803977
vt 0.092371 0.986713
vt 0.078575 0.803977
vt 0.339133 0.332915
vt 0.350169 0.277429
vt 0.157151 0.810350
vt 0.117863 0.989900
vt 0.131659 0.807163
vt 0.813711 0.765134
vt 0.995292 0.736675
vt 1.000000 0.756503
vt 0.823127 0.804790
vt 0.818419 0.784962
vt 0.813711 0.658775
vt 0.995292 0.683496
vt 0.993639 0.711038
vt 0.810404 0.713860
vt 0.812057 0.686318
vt 0.823127 0.608265
vt 1.000000 0.658241
vt 0.818419 0.633520
vt 0.980613 0.425667
vt 0.803739 0.473954
vt 0.799031 0.454126
vt 0.620808 0.607452
vt 0.538844 0.287936
vt 0.584145 0.278653
vt 0.696448 0.593444
vt 0.791017 0.277429
vt 0.744966 0.604060
vt 0.652850 0.578033
vt 0.620808 0.560173
vt 0.491802 0.303863
vt 0.450180 0.324011
vt 0.620808 0.277429
vt 0.244092 0.541937
vt 0.338660 0.857952
vt 0.200494 0.557348
vt 0.292610 0.531320
vt 0.338660 0.527115
vt 0.163831 0.606228
vt 0.200494 0.277429
vt 0.200494 0.607452
vt 0.118530 0.596945
vt 0.071488 0.581018
vt 0.029865 0.560870
vt 0.000000 0.539569
vt 0.791017 0.608265
vt 0.812057 0.739497
vt 0.409218 0.640430
vt 0.397512 0.636898
vt 0.397512 0.529027
vt 0.409218 0.532560
vt 0.791017 0.477487
vt 0.806312 0.479399
vt 0.806312 0.587269
vt 0.791017 0.585358
vt 0.382217 0.634986
vt 0.382217 0.527115
vt 0.822867 0.479399
vt 0.822867 0.587269
vt 0.365662 0.634986
vt 0.365662 0.527115
vt 0.838162 0.477487
vt 0.838162 0.585358
vt 0.350367 0.636898
vt 0.350367 0.529027
vt 0.849868 0.473954
vt 0.849868 0.581825
vt 0.338660 0.640430
vt 0.338660 0.532560
vt 0.897014 0.583737
vt 0.881719 0.581825
vt 0.881719 0.473954
vt 0.897014 0.475866
vt 0.397512 0.833442
vt 0.382217 0.831530
vt 0.382217 0.723659
vt 0.397512 0.725571
vt 0.865163 0.581825
vt 0.865163 0.473954
vt 0.365662 0.831530
vt 0.350367 0.833442
vt 0.350367 0.725571
vt 0.365662 0.723659
vt 0.849868 0.583737
vt 0.849868 0.475866
vt 0.338660 0.836974
vt 0.338660 0.729104
vt 0.421889 0.673767
vt 0.421889 0.690322
vt 0.415554 0.705617
vt 0.415554 0.658472
vt 0.403847 0.717324
vt 0.403847 0.646766
vt 0.388552 0.723659
vt 0.388552 0.640430
vt 0.371997 0.723659
vt 0.371997 0.640430
vt 0.356702 0.717324
vt 0.356702 0.646766
vt 0.344996 0.705617
vt 0.344996 0.658472
vt 0.338660 0.690322
vt 0.338660 0.673767
vn -0.0792 -0.9898 -0.1185
vn 0.0792 -0.9898 0.1185
vn -0.0278 -0.9898 -0.1397
vn -0.0278 -0.9898 0.1397
vn 0.0278 -0.9898 0.1397
vn 0.0278 -0.9898 -0.1397
vn -0.0792 -0.9898 0.1185
vn 0.0792 -0.9898 -0.1185
vn -0.1185 -0.9898 0.0792
vn 0.1397 -0.9898 -0.0278
vn -0.1397 -0.9898 0.0278
vn -0.7697 0.3783 0.5143
vn 0.1185 -0.9898 -0.0792
vn -0.1397 -0.9898 -0.0278
vn 0.1397 -0.9898 0.0278
vn -0.1185 -0.9898 -0.0792
vn 0.0000 -1.0000 0.0000
vn -0.1806 0.3783 -0.9079
vn -0.5143 0.3783 -0.7697
vn -0.7697 0.3783 -0.5143
vn -0.9079 0.3783 -0.1806
vn 0.1185 -0.9898 0.0792
vn -0.9079 0.3783 0.1806
vn -0.5143 0.3783 0.7697
vn -0.1806 0.3783 0.9079
vn 0.1806 0.3783 0.9079
vn 0.5143 0.3783 0.7697
vn 0.7697 0.3783 0.5143
vn 0.9079 0.3783 0.1806
vn 0.9079 0.3783 -0.1806
vn 0.7697 0.3783 -0.5143
vn 0.5143 0.3783 -0.7697
vn 0.1806 0.3783 -0.9079
vn -0.5556 0.0000 0.8315
vn 0.8315 0.0000 -0.5556
vn -0.8315 0.0000 0.5556
vn 0.9808 0.0000 -0.1951
vn -0.9808 0.0000 0.1951
vn 0.9808 0.0000 0.1951
vn -0.9808 0.0000 -0.1951
vn 0.8315 0.0000 0.5556
vn -0.8315 0.0000 -0.5556
vn 0.5556 0.0000 0.8315
vn -0.5556 0.0000 -0.8315
vn 0.1951 0.0000 0.9808
vn 0.1951 0.0000 -0.9808
vn -0.1951 0.0000 -0.9808
vn -0.1951 0.0000 0.9808
vn 0.5556 0.0000 -0.8315
usemtl needles
s off
f 57/1/1 56/2/1 73/3/1 106/4/1 74/5/1
f 64/6/2 63/7/2 80/8/2 98/9/2 81/10/2
f 58/11/3 57/1/3 74/5/3 105/12/3 75/13/3
f 51/14/4 50/15/4 66/16/4 112/17/4 68/18/4
f 50/15/5 64/6/5 81/10/5 97/19/5 66/16/5
f 59/20/6 58/11/6 75/13/6 104/21/6 76/22/6
f 52/23/7 51/14/7 68/18/7 111/24/7 69/25/7
f 60/26/8 59/20/8 76/22/8 103/27/8 77/28/8
f 53/29/9 52/23/9 69/25/9 110/30/9 70/31/9
f 61/32/10 65/33/10 67/34/10 102/35/10 78/36/10
f 54/37/11 53/29/11 70/31/11 109/38/11 71/39/11
f 65/40/12 12/41/12 11/42/12 60/43/12
f 65/33/13 60/26/13 77/28/13 101/44/13 67/34/13
f 55/45/14 54/37/14 71/39/14 108/46/14 72/47/14
f 62/48/15 61/32/15 78/36/15 100/49/15 79/50/15
f 56/2/16 55/45/16 72/47/16 107/51/16 73/3/16
f 6/52/17 7/53/17 24/54/17 23/55/17
f 10/56/17 11/57/17 28/58/17 27/59/17
f 14/60/17 15/61/17 32/62/17 31/63/17
f 3/64/17 4/65/17 21/66/17 20/67/17
f 7/53/17 8/68/17 25/69/17 24/54/17
f 11/57/17 12/70/17 29/71/17 28/58/17
f 15/61/17 16/72/17 33/73/17 32/62/17
f 4/65/17 5/74/17 22/75/17 21/66/17
f 1/76/17 2/77/17 19/78/17 18/79/17
f 8/68/17 9/80/17 26/81/17 25/69/17
f 12/70/17 13/82/17 30/83/17 29/71/17
f 16/72/17 1/76/17 18/79/17 33/73/17
f 5/74/17 6/52/17 23/55/17 22/75/17
f 9/80/17 10/56/17 27/59/17 26/81/17
f 13/82/17 14/60/17 31/63/17 30/83/17
f 2/77/17 3/64/17 20/67/17 19/78/17
f 16/84/18 64/85/18 50/86/18 1/87/18
f 15/88/19 63/89/19 64/85/19 16/84/19
f 14/90/20 62/91/20 63/92/20 15/93/20
f 13/94/21 61/95/21 62/91/21 14/90/21
f 63/7/22 62/48/22 79/50/22 99/96/22 80/8/22
f 13/94/23 12/41/23 65/40/23 61/95/23
f 10/97/24 59/98/24 60/99/24 11/100/24
f 9/101/25 58/102/25 59/98/25 10/97/25
f 8/103/26 57/104/26 58/102/26 9/101/26
f 7/105/27 56/106/27 57/104/27 8/103/27
f 6/107/28 55/108/28 56/109/28 7/110/28
f 5/111/29 54/112/29 55/108/29 6/107/29
f 4/113/30 53/114/30 54/112/30 5/111/30
f 3/115/31 52/116/31 53/114/31 4/113/31
f 2/117/32 51/118/32 52/119/32 3/120/32
f 1/87/33 50/86/33 51/118/33 2/117/33
f 83/121/4 17/122/4 113/123/4 116/124/4
f 78/125/23 102/126/23 67/127/23 82/128/23 93/129/23
f 66/130/33 17/131/33 83/132/33 68/133/33 112/134/33
f 88/135/16 87/136/16 120/137/16 121/138/16
f 81/139/18 96/140/18 17/131/18 66/130/18 97/141/18
f 86/142/11 85/143/11 118/144/11 119/145/11
f 80/146/19 95/147/19 96/140/19 81/139/19 98/148/19
f 82/149/13 92/150/13 125/151/13 115/152/13
f 79/153/20 94/154/20 95/155/20 80/156/20 99/157/20
f 91/158/6 90/159/6 123/160/6 124/161/6
f 96/162/2 95/163/2 128/164/2 129/165/2
f 78/125/21 93/129/21 94/154/21 79/153/21 100/166/21
f 101/167/12 77/168/12 92/169/12 82/128/12 67/127/12
f 93/170/10 82/149/10 115/152/10 126/171/10
f 76/172/24 91/173/24 92/169/24 77/168/24 103/174/24
f 84/175/7 83/121/7 116/124/7 117/176/7
f 75/177/25 90/178/25 91/179/25 76/180/25 104/181/25
f 89/182/1 88/135/1 121/138/1 122/183/1
f 74/184/26 89/185/26 90/178/26 75/177/26 105/186/26
f 94/187/15 93/170/15 126/171/15 127/188/15
f 73/189/27 88/190/27 89/185/27 74/184/27 106/191/27
f 87/136/14 86/142/14 119/145/14 120/137/14
f 72/192/28 87/193/28 88/194/28 73/195/28 107/196/28
f 92/150/8 91/158/8 124/161/8 125/151/8
f 17/122/5 96/162/5 129/165/5 113/123/5
f 70/197/30 85/198/30 86/199/30 71/200/30 109/201/30
f 85/143/9 84/175/9 117/176/9 118/144/9
f 69/202/31 84/203/31 85/198/31 70/197/31 110/204/31
f 90/159/3 89/182/3 122/183/3 123/160/3
f 68/133/32 83/132/32 84/205/32 69/206/32 111/207/32
f 95/163/22 94/187/22 127/188/22 128/164/22
f 114/208/12 115/209/12 125/210/12
f 129/211/18 114/212/18 113/213/18
f 128/214/19 114/212/19 129/211/19
f 127/215/20 114/212/20 128/214/20
f 126/216/21 114/208/21 127/217/21
f 126/216/23 115/209/23 114/208/23
f 124/218/24 114/208/24 125/210/24
f 123/219/25 114/220/25 124/221/25
f 122/222/26 114/220/26 123/219/26
f 121/223/27 114/220/27 122/222/27
f 120/224/28 114/225/28 121/226/28
f 119/227/29 114/225/29 120/224/29
f 118/228/30 114/225/30 119/227/30
f 117/229/31 114/225/31 118/228/31
f 116/230/32 114/225/32 117/229/32
f 113/213/33 114/212/33 116/231/33
f 71/200/29 86/199/29 87/193/29 72/192/29 108/232/29
usemtl bark
f 27/233/34 28/234/34 44/235/34 43/236/34
f 20/237/35 21/238/35 37/239/35 36/240/35
f 28/234/36 29/241/36 45/242/36 44/235/36
f 21/238/37 22/243/37 38/244/37 37/239/37
f 29/241/38 30/245/38 46/246/38 45/242/38
f 22/243/39 23/247/39 39/248/39 38/244/39
f 30/245/40 31/249/40 47/250/40 46/246/40
f 23/247/41 24/251/41 40/252/41 39/248/41
f 31/249/42 32/253/42 48/254/42 47/250/42
f 24/255/43 25/256/43 41/257/43 40/258/43
f 32/259/44 33/260/44 49/261/44 48/262/44
f 25/256/45 26/263/45 42/264/45 41/257/45
f 18/265/46 19/266/46 35/267/46 34/268/46
f 33/260/47 18/265/47 34/268/47 49/261/47
f 26/263/48 27/269/48 43/270/48 42/264/48
f 19/266/49 20/271/49 36/272/49 35/267/49
f 46/273/17 47/274/17 48/275/17 45/276/17
f 45/276/17 48/275/17 49/277/17 44/278/17
f 44/278/17 49/277/17 34/279/17 43/280/17
f 35/281/17 42/282/17 43/280/17 34/279/17
f 36/283/17 41/284/17 42/282/17 35/281/17
f 37/285/17 40/286/17 41/284/17 36/283/17
f 38/287/17 39/288/17 40/286/17 37/285/17
