# Blender v3.2.1 OBJ File: 'all-dice.blend'
# www.blender.org
mtllib d12.mtl
o d12_Solid.002
v -0.139022 -0.750623 -0.588189
v -0.162914 -0.799023 -0.513898
v -0.226355 -0.751069 -0.559813
v -0.786477 0.198491 -0.513898
v -0.732502 0.198767 -0.588189
v -0.771159 0.120454 -0.559812
v -0.139022 -0.750623 0.588189
v -0.226355 -0.751070 0.559812
v -0.162914 -0.799023 0.513898
v -0.786477 0.198491 0.513898
v -0.771159 0.120454 0.559813
v -0.732502 0.198767 0.588189
v 0.786476 -0.205544 -0.513898
v 0.732502 -0.205819 -0.588189
v 0.771159 -0.127506 -0.559813
v 0.139022 0.743571 -0.588189
v 0.162914 0.791971 -0.513898
v 0.226355 0.744017 -0.559812
v 0.771159 -0.127507 0.559812
v 0.732502 -0.205820 0.588189
v 0.786477 -0.205544 0.513898
v 0.226355 0.744017 0.559813
v 0.162914 0.791971 0.513898
v 0.139022 0.743571 0.588189
v -0.332311 -0.211259 -0.877419
v -0.293654 -0.132946 -0.905796
v -0.244978 -0.210813 -0.905796
v 0.244978 0.203761 -0.905796
v 0.332311 0.204207 -0.877419
v 0.293653 0.125894 -0.905796
v -0.332311 -0.211259 0.877419
v -0.244978 -0.210813 0.905796
v -0.293654 -0.132947 0.905796
v 0.332311 0.204207 0.877419
v 0.244978 0.203761 0.905796
v 0.293654 0.125894 0.905796
v -0.536278 -0.800931 -0.000000
v -0.599719 -0.752977 0.045914
v -0.599719 -0.752977 -0.045915
v -0.936427 -0.214346 0.045914
v -0.951744 -0.136308 0.000000
v -0.936427 -0.214346 -0.045914
v 0.951744 0.129256 -0.000000
v 0.936427 0.207293 -0.045914
v 0.936427 0.207293 0.045914
v 0.599719 0.745925 0.045915
v 0.599719 0.745925 -0.045914
v 0.536278 0.793878 0.000000
v 0.465093 -0.747537 -0.391898
v 0.519068 -0.747261 -0.317607
v 0.441202 -0.795937 -0.317607
v 0.441202 -0.795937 0.317606
v 0.519068 -0.747261 0.317606
v 0.465093 -0.747537 0.391897
v -0.441202 0.788885 -0.317606
v -0.465093 0.740485 -0.391897
v -0.519068 0.740209 -0.317606
v -0.519068 0.740209 0.317607
v -0.465093 0.740485 0.391898
v -0.441202 0.788885 0.317607
vt 0.210072 0.295972
vt 0.129832 0.401008
vt 0.000000 0.336092
vt 0.000000 0.190936
vt 0.129832 0.166140
vt 0.782655 0.416192
vt 0.906132 0.505904
vt 0.858968 0.651060
vt 0.706342 0.651060
vt 0.659178 0.505904
vt 0.568744 0.040120
vt 0.488504 0.145156
vt 0.358672 0.169952
vt 0.358672 0.080240
vt 0.488504 0.000000
vt 0.281981 0.746377
vt 0.164066 0.831031
vt 0.035616 0.763423
vt 0.074144 0.636985
vt 0.226406 0.626450
vt 0.934986 0.083685
vt 0.982150 0.228841
vt 0.858672 0.318552
vt 0.735195 0.228841
vt 0.782359 0.083685
vt 0.488504 0.166140
vt 0.568744 0.295972
vt 0.488504 0.401008
vt 0.358672 0.336092
vt 0.358672 0.190936
vt 0.228841 0.284372
vt 0.148601 0.154541
vt 0.228841 0.049505
vt 0.358672 0.114420
vt 0.358672 0.259576
vt 0.210072 0.040120
vt 0.129832 0.145156
vt 0.000000 0.169952
vt 0.000000 0.080240
vt 0.129832 0.000000
vt 0.134961 0.410392
vt 0.263411 0.478000
vt 0.224883 0.604438
vt 0.072621 0.614974
vt 0.017046 0.495047
vt 0.423687 0.600798
vt 0.376523 0.477321
vt 0.500000 0.401008
vt 0.623477 0.477321
vt 0.576313 0.600798
vt 0.376523 0.746340
vt 0.423687 0.622862
vt 0.576313 0.622862
vt 0.623477 0.746339
vt 0.500000 0.822653
vt 0.587513 0.049505
vt 0.587513 0.036536
vt 0.993182 0.244025
vt 1.000000 0.223041
vt 0.706342 0.669829
vt 0.688491 0.656860
vt 0.228841 0.036536
vt 0.587513 0.284372
vt 0.587513 0.305356
vt 0.724163 0.244025
vt 0.717345 0.223041
vt 0.793687 0.401008
vt 0.771623 0.401008
vt 0.228841 0.305356
vt 0.952836 0.077885
vt 0.934986 0.064916
vt 0.764509 0.077885
vt 0.782359 0.064916
vt 0.858968 0.669829
vt 0.876818 0.656860
vt 0.917164 0.490719
vt 0.923982 0.511704
vt 0.405837 0.611830
vt 0.594163 0.611830
vt 0.055575 0.627212
vt 0.243452 0.614212
vt 0.507273 0.154541
vt 0.641327 0.511704
vt 0.648146 0.490719
vt 0.847640 0.333737
vt 0.869704 0.333737
vt 0.148601 0.410392
vt 1.000000 0.012969
vt 0.982150 0.000000
vt 0.358672 0.735307
vt 0.000000 0.507285
vt 0.281981 0.487774
vt 0.358672 0.280561
vt 0.641327 0.735307
vt 0.906132 0.734745
vt 0.923982 0.721776
vt 0.358672 0.488353
vt 0.717345 0.259577
vt 0.717345 0.280561
vt 0.641327 0.488353
vt 0.017046 0.753650
vt 0.717345 0.114420
vn -0.0051 1.0000 0.0000
vn 0.2787 -0.4458 0.8507
vn 0.0051 -1.0000 -0.0000
vn 0.7213 0.4509 0.5257
vn -0.2787 0.4458 -0.8507
vn 0.8967 -0.4426 -0.0000
vn -0.2787 0.4458 0.8507
vn -0.8967 0.4426 0.0000
vn 0.7213 0.4509 -0.5257
vn -0.7213 -0.4509 0.5257
vn -0.7213 -0.4509 -0.5257
vn -0.1835 -0.7956 -0.5774
vn -0.7956 0.1835 -0.5773
vn -0.1835 -0.7956 0.5774
vn -0.7956 0.1835 0.5774
vn 0.7956 -0.1835 -0.5774
vn 0.1835 0.7956 -0.5773
vn 0.7956 -0.1835 0.5773
vn 0.1835 0.7956 0.5774
vn -0.3026 -0.1891 -0.9342
vn 0.3026 0.1891 -0.9342
vn -0.3026 -0.1891 0.9342
vn 0.3026 0.1891 0.9342
vn -0.6030 -0.7977 0.0000
vn -0.9813 -0.1926 0.0000
vn 0.9813 0.1926 0.0000
vn 0.6030 0.7977 0.0000
vn 0.4952 -0.7921 -0.3568
vn 0.4952 -0.7921 0.3568
vn -0.4952 0.7921 -0.3568
vn -0.4952 0.7921 0.3568
vn -0.1668 0.8498 -0.5000
vn 0.4210 0.8528 0.3090
vn -0.2602 -0.5271 -0.8090
vn 0.0000 0.0000 -1.0000
vn -0.2602 -0.5271 0.8090
vn 0.5878 0.0030 0.8090
vn -0.4210 -0.8528 -0.3090
vn -0.8480 -0.5301 0.0000
vn 0.9510 0.0049 -0.3090
vn 0.4210 0.8528 -0.3090
vn 0.1668 -0.8498 -0.5000
vn 0.5301 -0.8480 -0.0000
vn -0.6909 0.5222 -0.5000
vn -0.6909 0.5222 0.5000
vn -0.1668 0.8498 0.5000
vn 0.6909 -0.5222 0.5000
vn 0.0000 -0.0000 1.0000
vn -0.5878 -0.0030 -0.8090
vn 0.2602 0.5271 0.8090
vn 0.8480 0.5301 0.0000
vn -0.9510 -0.0049 -0.3090
vn -0.5878 -0.0030 0.8090
vn -0.4210 -0.8528 0.3090
vn 0.5878 0.0030 -0.8090
vn 0.2602 0.5271 -0.8090
vn -0.9510 -0.0049 0.3090
vn 0.1668 -0.8498 0.5000
vn -0.5301 0.8480 0.0000
vn 0.6909 -0.5222 -0.5000
vn 0.9510 0.0049 0.3090
vn 0.2787 -0.4458 -0.8507
g d12_Solid.002_Material.003
usemtl Material.003
s off
f 23/1/1 48/2/1 17/3/1 55/4/1 60/5/1
f 20/6/2 36/7/2 32/8/2 7/9/2 54/10/2
f 2/11/3 51/12/3 52/13/3 9/14/3 37/15/3
f 22/16/4 34/17/4 19/18/4 45/19/4 46/20/4
f 26/21/5 5/22/5 56/23/5 16/24/5 28/25/5
f 50/26/6 13/27/6 43/28/6 21/29/6 53/30/6
f 24/31/7 59/32/7 12/33/7 33/34/7 35/35/7
f 10/36/8 58/37/8 57/38/8 4/39/8 41/40/8
f 29/41/9 18/42/9 47/43/9 44/44/9 15/45/9
f 38/46/10 8/47/10 31/48/10 11/49/10 40/50/10
f 3/51/11 39/52/11 42/53/11 6/54/11 25/55/11
f 1/56/12 2/11/12 3/57/12
f 4/58/13 5/22/13 6/59/13
f 7/9/14 8/60/14 9/61/14
f 10/36/15 11/62/15 12/33/15
f 13/27/16 14/63/16 15/64/16
f 16/24/17 17/65/17 18/66/17
f 19/67/18 20/6/18 21/68/18
f 22/69/19 23/1/19 24/31/19
f 25/70/20 26/21/20 27/71/20
f 28/25/21 29/72/21 30/73/21
f 31/74/22 32/8/22 33/75/22
f 34/76/23 35/77/23 36/7/23
f 37/78/24 38/46/24 39/52/24
f 40/50/25 41/79/25 42/53/25
f 43/80/26 44/44/26 45/19/26
f 46/20/27 47/43/27 48/81/27
f 49/82/28 50/26/28 51/12/28
f 52/83/29 53/84/29 54/10/29
f 55/85/30 56/23/30 57/86/30
f 58/37/31 59/32/31 60/5/31
f 16/24/32 56/23/32 55/85/32 17/65/32
f 22/69/33 46/87/33 48/2/33 23/1/33
f 3/88/34 25/70/34 27/71/34 1/89/34
f 26/21/35 28/25/35 30/73/35 27/71/35
f 7/9/36 32/8/36 31/74/36 8/60/36
f 19/67/37 34/76/37 36/7/37 20/6/37
f 2/90/38 37/78/38 39/52/38 3/51/38
f 38/46/39 40/50/39 42/53/39 39/52/39
f 15/45/40 44/44/40 43/80/40 13/91/40
f 17/92/41 48/81/41 47/43/41 18/42/41
f 1/56/42 49/82/42 51/12/42 2/11/42
f 50/26/43 53/30/43 52/13/43 51/12/43
f 4/58/44 57/86/44 56/23/44 5/22/44
f 12/33/45 59/32/45 58/37/45 10/36/45
f 23/1/46 60/5/46 59/32/46 24/31/46
f 20/6/47 54/10/47 53/84/47 21/68/47
f 32/8/48 36/7/48 35/77/48 33/75/48
f 5/22/49 26/21/49 25/70/49 6/59/49
f 24/31/50 35/35/50 34/93/50 22/69/50
f 44/44/51 47/43/51 46/20/51 45/19/51
f 6/54/52 42/53/52 41/79/52 4/94/52
f 11/95/53 31/74/53 33/75/53 12/96/53
f 8/47/54 38/46/54 37/78/54 9/97/54
f 14/63/55 30/98/55 29/99/55 15/64/55
f 18/66/56 29/72/56 28/25/56 16/24/56
f 10/100/57 41/79/57 40/50/57 11/49/57
f 9/61/58 52/83/58 54/10/58 7/9/58
f 57/38/59 58/37/59 60/5/59 55/4/59
f 13/27/60 50/26/60 49/82/60 14/63/60
f 21/101/61 43/80/61 45/19/61 19/18/61
f 1/56/62 27/102/62 30/98/62 14/63/62 49/82/62
