# Blender v3.2.1 OBJ File: 'all-dice.blend'
# www.blender.org
mtllib d4.mtl
o d4_Solid
v -0.046245 1.110147 0.000000
v 0.023122 1.110147 0.040049
v 0.023122 1.110147 -0.040049
v 1.041264 -0.329723 0.040049
v 1.018142 -0.395122 0.000000
v 1.041264 -0.329723 -0.040049
v -0.555316 -0.329723 -0.881737
v -0.485948 -0.329723 -0.921786
v -0.509071 -0.395122 -0.881737
v -0.485948 -0.329723 0.921786
v -0.555316 -0.329723 0.881737
v -0.509071 -0.395122 0.881737
vt 0.006530 0.260304
vt 0.437800 0.011310
vt 0.437800 0.509298
vt 0.415166 1.000000
vt 0.000000 0.760304
vt 0.415166 0.520608
vt 0.437800 0.244655
vt 0.861555 0.000000
vt 0.861555 0.489309
vt 0.434023 0.542382
vt 0.434023 0.564156
vt 0.415166 0.553269
vt 0.874386 0.411003
vt 0.888615 0.386359
vt 0.902843 0.411003
vt 0.874386 0.024644
vt 0.888615 0.000000
vt 0.902843 0.024644
vt 0.434023 0.542382
vt 0.415166 0.531495
vt 0.434023 0.520608
vt 0.431271 0.520608
vt 0.000000 0.271613
vt 0.874386 0.772717
vt 0.902843 0.772717
vt 0.000000 0.248994
vt 0.431271 0.000000
vt 0.874386 0.000000
vt 0.874386 0.489309
vt 0.902843 0.386359
vt 0.874386 0.386359
vt 0.861555 0.978619
vt 0.861555 0.489310
vt 0.874386 0.489309
vt 0.874386 0.978619
vt 0.437800 0.733964
vn -0.9428 0.3333 0.0000
vn 0.0000 -1.0000 0.0000
vn 0.4714 0.3333 -0.8165
vn 0.0000 1.0000 0.0000
vn 0.9428 -0.3333 0.0000
vn -0.4714 -0.3333 -0.8165
vn -0.4714 -0.3333 0.8165
vn -0.4082 0.5774 0.7071
vn 0.8165 0.5774 0.0000
vn -0.4082 0.5774 -0.7071
vn 0.4082 -0.5774 -0.7071
vn -0.8165 -0.5774 0.0000
vn 0.4082 -0.5774 0.7071
vn 0.4714 0.3333 0.8165
g d4_Solid_Material.001
usemtl Material.001
s off
f 1/1/1 7/2/1 11/3/1
f 5/4/2 12/5/2 9/6/2
f 3/7/3 6/8/3 8/9/3
f 1/10/4 2/11/4 3/12/4
f 4/13/5 5/14/5 6/15/5
f 7/16/6 8/17/6 9/18/6
f 10/19/7 11/20/7 12/21/7
f 1/1/8 11/3/8 10/22/8 2/23/8
f 2/24/9 4/13/9 6/15/9 3/25/9
f 3/26/10 8/27/10 7/2/10 1/1/10
f 5/28/11 9/29/11 8/9/11 6/8/11
f 9/18/12 12/30/12 11/31/12 7/16/12
f 4/32/13 10/33/13 12/34/13 5/35/13
f 2/36/14 10/33/14 4/32/14
