# Blender v2.93.4 OBJ File: 'all-dice.blend'
# www.blender.org
mtllib d4.mtl
o d4_Solid
v -0.046245 1.191256 0.000000
v 0.023122 1.191256 0.040049
v 0.023122 1.191256 -0.040049
v 1.041264 -0.248614 0.040049
v 1.018142 -0.314014 0.000000
v 1.041264 -0.248614 -0.040049
v -0.555316 -0.248614 -0.881737
v -0.485948 -0.248614 -0.921786
v -0.509071 -0.314014 -0.881737
v -0.485948 -0.248614 0.921786
v -0.555316 -0.248614 0.881737
v -0.509071 -0.314014 0.881737
vn -0.9428 0.3333 0.0000
vn 0.0000 -1.0000 0.0000
vn 0.4714 0.3333 -0.8165
vn 0.0000 1.0000 -0.0000
vn 0.9428 -0.3333 0.0000
vn -0.4714 -0.3333 -0.8165
vn -0.4714 -0.3333 0.8165
vn -0.4082 0.5774 0.7071
vn 0.8165 0.5774 0.0000
vn -0.4082 0.5774 -0.7071
vn 0.4082 -0.5774 -0.7071
vn -0.8165 -0.5774 0.0000
vn 0.4082 -0.5774 0.7071
vn 0.4714 0.3333 0.8165
usemtl None
s off
f 1//1 7//1 11//1
f 5//2 12//2 9//2
f 3//3 6//3 8//3
f 1//4 2//4 3//4
f 4//5 5//5 6//5
f 7//6 8//6 9//6
f 10//7 11//7 12//7
f 1//8 11//8 10//8 2//8
f 2//9 4//9 6//9 3//9
f 3//10 8//10 7//10 1//10
f 5//11 9//11 8//11 6//11
f 9//12 12//12 11//12 7//12
f 4//13 10//13 12//13 5//13
f 2//14 10//14 4//14
