# Blender v3.2.1 OBJ File: 'all-dice.blend'
# www.blender.org
mtllib d8.mtl
o d8_Solid.001
v 0.683103 -0.495566 -0.392083
v 0.683103 -0.534509 -0.336468
v 0.635095 -0.573835 -0.364004
v 0.635095 -0.534892 -0.419619
v -0.635095 0.545295 0.419619
v -0.635095 0.584238 0.364004
v -0.683103 0.544912 0.336468
v -0.683103 0.505969 0.392083
v -0.000000 0.500510 -0.791073
v -0.048008 0.539836 -0.763537
v -0.000000 0.579162 -0.736000
v 0.048008 0.539836 -0.763537
v -0.048008 -0.529433 0.763537
v 0.000000 -0.568759 0.736000
v 0.048008 -0.529433 0.763537
v 0.000000 -0.490107 0.791073
v 0.635095 0.584238 0.364004
v 0.635095 0.545295 0.419619
v 0.683103 0.505970 0.392083
v 0.683103 0.544912 0.336468
v -0.635095 -0.573835 -0.364004
v -0.683103 -0.534509 -0.336468
v -0.683103 -0.495567 -0.392083
v -0.635095 -0.534892 -0.419619
vn -0.8165 -0.3312 0.4729
vn -0.0000 0.3377 0.9413
vn 0.8165 0.3312 -0.4729
vn 0.0000 -1.0000 0.0046
vn -0.0000 1.0000 -0.0046
vn -0.8165 0.3312 -0.4729
vn 0.8165 -0.3312 0.4729
vn 0.7071 -0.5792 -0.4056
vn -0.7071 0.5792 0.4056
vn -0.0000 0.5736 -0.8192
vn 0.0000 -0.5736 0.8192
vn 0.7071 0.5792 0.4056
vn -0.7071 -0.5792 -0.4056
vn 0.5000 -0.0040 -0.8660
vn -0.5000 0.0040 0.8660
vn 0.5000 0.8152 -0.2924
vn -0.0000 -0.8192 -0.5736
vn -0.5000 -0.0040 -0.8660
vn -1.0000 -0.0000 0.0000
vn 0.5000 0.0040 0.8660
vn 0.5000 -0.8152 0.2924
vn -0.5000 -0.8152 0.2924
vn -0.5000 0.8152 -0.2924
vn 1.0000 0.0000 0.0000
vn 0.0000 0.8192 0.5736
vn 0.0000 -0.3377 -0.9413
usemtl None
s off
f 22//1 13//1 8//1
f 18//2 5//2 16//2
f 20//3 1//3 12//3
f 21//4 3//4 14//4
f 17//5 11//5 6//5
f 23//6 7//6 10//6
f 19//7 15//7 2//7
f 1//8 2//8 3//8 4//8
f 5//9 6//9 7//9 8//9
f 9//10 10//10 11//10 12//10
f 13//11 14//11 15//11 16//11
f 17//12 18//12 19//12 20//12
f 21//13 22//13 23//13 24//13
f 4//14 9//14 12//14 1//14
f 8//15 13//15 16//15 5//15
f 11//16 17//16 20//16 12//16
f 3//17 21//17 24//17 4//17
f 9//18 24//18 23//18 10//18
f 7//19 23//19 22//19 8//19
f 15//20 19//20 18//20 16//20
f 2//21 15//21 14//21 3//21
f 13//22 22//22 21//22 14//22
f 6//23 11//23 10//23 7//23
f 1//24 20//24 19//24 2//24
f 5//25 18//25 17//25 6//25
f 24//26 9//26 4//26
