# Blender v3.2.1 OBJ File: 'all-dice.blend'
# www.blender.org
mtllib d8.mtl
o d8_Solid.001
v 0.683103 -0.495566 -0.392083
v 0.683103 -0.534509 -0.336468
v 0.635095 -0.573835 -0.364004
v 0.635095 -0.534892 -0.419619
v -0.635095 0.545295 0.419619
v -0.635095 0.584238 0.364004
v -0.683103 0.544912 0.336468
v -0.683103 0.505969 0.392083
v -0.000000 0.500510 -0.791073
v -0.048008 0.539836 -0.763537
v -0.000000 0.579162 -0.736000
v 0.048008 0.539836 -0.763537
v -0.048008 -0.529433 0.763537
v 0.000000 -0.568759 0.736000
v 0.048008 -0.529433 0.763537
v 0.000000 -0.490107 0.791073
v 0.635095 0.584238 0.364004
v 0.635095 0.545295 0.419619
v 0.683103 0.505970 0.392083
v 0.683103 0.544912 0.336468
v -0.635095 -0.573835 -0.364004
v -0.683103 -0.534509 -0.336468
v -0.683103 -0.495567 -0.392083
v -0.635095 -0.534892 -0.419619
vt 0.672192 0.411081
vt 0.991943 0.595690
vt 0.672192 0.780298
vt 0.304985 0.343714
vt 0.000000 0.439761
vt 0.011107 0.120203
vt 0.983886 0.383172
vt 0.664135 0.198563
vt 0.983886 0.013955
vt 0.339147 0.120203
vt 0.633024 0.343714
vt 0.328039 0.439761
vt 0.656078 0.871075
vt 0.351094 0.775028
vt 0.644971 0.551517
vt 0.328039 0.439761
vt 0.633024 0.535808
vt 0.339146 0.759319
vt 0.316932 0.328006
vt 0.023054 0.104495
vt 0.328039 0.008448
vt 0.656078 0.336454
vt 0.644131 0.352162
vt 0.644971 0.328006
vt 0.656078 0.543069
vt 0.644131 0.527361
vt 0.328039 0.767767
vt 0.339986 0.783475
vt 0.000000 0.111755
vt 0.011947 0.096047
vt 0.316092 0.352162
vt 0.328039 0.336454
vt 0.328039 0.111755
vt 0.339986 0.096047
vt 0.351094 0.104495
vt 0.656078 0.184608
vt 0.975829 0.000000
vt 1.000000 0.609645
vt 0.680249 0.794253
vt 1.000000 0.013955
vt 1.000000 0.383172
vt 0.656078 0.008448
vt 0.644971 0.000000
vt 0.656078 0.780298
vt 0.656078 0.411081
vt 0.316932 0.000000
vt 0.680249 0.397126
vt 1.000000 0.581735
vt 0.975829 0.397127
vt 0.656078 0.212518
vt 0.011107 0.448209
vn -0.8165 -0.3312 0.4729
vn -0.0000 0.3377 0.9413
vn 0.8165 0.3312 -0.4729
vn 0.0000 -1.0000 0.0046
vn -0.0000 1.0000 -0.0046
vn -0.8165 0.3312 -0.4729
vn 0.8165 -0.3312 0.4729
vn 0.7071 -0.5792 -0.4056
vn -0.7071 0.5792 0.4056
vn -0.0000 0.5736 -0.8192
vn 0.0000 -0.5736 0.8192
vn 0.7071 0.5792 0.4056
vn -0.7071 -0.5792 -0.4056
vn 0.5000 -0.0040 -0.8660
vn -0.5000 0.0040 0.8660
vn 0.5000 0.8152 -0.2924
vn -0.0000 -0.8192 -0.5736
vn -0.5000 -0.0040 -0.8660
vn -1.0000 -0.0000 0.0000
vn 0.5000 0.0040 0.8660
vn 0.5000 -0.8152 0.2924
vn -0.5000 -0.8152 0.2924
vn -0.5000 0.8152 -0.2924
vn 1.0000 0.0000 0.0000
vn 0.0000 0.8192 0.5736
vn 0.0000 -0.3377 -0.9413
g d8_Solid.001_Material.002
usemtl Material.002
s off
f 22/1/1 13/2/1 8/3/1
f 18/4/2 5/5/2 16/6/2
f 20/7/3 1/8/3 12/9/3
f 21/10/4 3/11/4 14/12/4
f 17/13/5 11/14/5 6/15/5
f 23/16/6 7/17/6 10/18/6
f 19/19/7 15/20/7 2/21/7
f 1/22/8 2/23/8 3/11/8 4/24/8
f 5/25/9 6/15/9 7/17/9 8/26/9
f 9/27/10 10/18/10 11/14/10 12/28/10
f 13/29/11 14/30/11 15/20/11 16/6/11
f 17/31/12 18/4/12 19/19/12 20/32/12
f 21/10/13 22/33/13 23/34/13 24/35/13
f 4/36/14 9/37/14 12/9/14 1/8/14
f 8/3/15 13/2/15 16/38/15 5/39/15
f 11/40/16 17/41/16 20/7/16 12/9/16
f 3/11/17 21/10/17 24/35/17 4/24/17
f 9/42/18 24/35/18 23/34/18 10/43/18
f 7/44/19 23/45/19 22/1/19 8/3/19
f 15/20/20 19/19/20 18/4/20 16/6/20
f 2/21/21 15/20/21 14/30/21 3/46/21
f 13/2/22 22/1/22 21/47/22 14/48/22
f 6/15/23 11/14/23 10/18/23 7/17/23
f 1/8/24 20/7/24 19/49/24 2/50/24
f 5/5/25 18/4/25 17/31/25 6/51/25
f 24/35/26 9/42/26 4/24/26
